<svg width="80" height="80" viewBox="0 0 80 80" fill="none" xmlns="http://www.w3.org/2000/svg">
<rect width="80" height="80" fill="black"/>
<path d="M24.6816 47.6113C24.6816 49.0007 24.4453 50.3112 23.9727 51.543C23.5 52.7604 22.7839 53.7988 21.8242 54.6582C20.75 55.6322 19.4824 56.3483 18.0215 56.8066C16.5605 57.265 14.8776 57.4941 12.9727 57.4941C11.5547 57.4941 10.2227 57.4368 8.97656 57.3223C7.73047 57.222 6.63477 57.0716 5.68945 56.8711V50.3828H6.41992C7.06445 50.6406 7.73763 50.8841 8.43945 51.1133C9.14128 51.3281 10.0436 51.4355 11.1465 51.4355C12.5645 51.4355 13.653 51.235 14.4121 50.834C15.1855 50.4329 15.7298 49.8743 16.0449 49.1582C16.3743 48.4564 16.5534 47.6471 16.582 46.7305C16.625 45.7995 16.6465 44.7682 16.6465 43.6367V30.8105H9.32031V25.0098H24.6816V47.6113ZM46.8535 57H29.623V51.4141H34.2207V30.5957H29.623V25.0098H46.8535V30.5957H42.2559V51.4141H46.8535V57ZM73.6016 31.1113H60.1738V37.1484H72.5273V43.25H60.1738V57H52.1816V25.0098H73.6016V31.1113Z" fill="white"/>
</svg>
